# xmcd
#
# Track frame offsets:
#	150
#	17632
#	35564
#	54388
#	69129
#	88963
#	112949
#	131154
#	152475
#	170465
#	190258
#
# Disc length: 3057 seconds
#
# Revision: 1
# Processed by: cddbd v1.5.2PL0 Copyright (c) Steve Scherf et al.
# Submitted via: audiograbber 1.83.01
#
DISCID=890bef0b
DTITLE=Canada Cody And The Departed - HippieLovePunk
DYEAR=1992
DGENRE=Country
TTITLE0=Comin To Me
TTITLE1=Inbetweener
TTITLE2=Easy
TTITLE3=Revolution
TTITLE4=Back Closer
TTITLE5=Got It
TTITLE6=Great Big Nothing
TTITLE7=Maker
TTITLE8=Stay
TTITLE9=Boss Of Me
TTITLE10=All Nighter
EXTD=
EXTT0=
EXTT1=
EXTT2=
EXTT3=
EXTT4=
EXTT5=
EXTT6=
EXTT7=
EXTT8=
EXTT9=
EXTT10=
PLAYORDER=
